<?xml version="1.0" standalone="no"?>
<!DOCTYPE svg PUBLIC "-//W3C//DTD SVG 20010904//EN"
 "http://www.w3.org/TR/2001/REC-SVG-20010904/DTD/svg10.dtd">
<svg version="1.0" xmlns="http://www.w3.org/2000/svg"
 width="487.000000pt" height="487.000000pt" viewBox="0 0 487.000000 487.000000"
 preserveAspectRatio="xMidYMid meet">
<metadata>
Created by potrace 1.14, written by Peter Selinger 2001-2017
</metadata>
<g transform="translate(0.000000,487.000000) scale(0.100000,-0.100000)"
fill="#000000" stroke="none">
<path d="M0 2435 l0 -2435 2435 0 2435 0 0 2435 0 2435 -2435 0 -2435 0 0
-2435z m4050 2213 c0 -7 -11 -218 -25 -468 -14 -250 -34 -617 -45 -815 -11
-198 -23 -394 -26 -436 l-6 -76 158 -128 c88 -70 277 -222 421 -338 145 -116
261 -212 259 -215 -5 -4 -131 32 -221 63 -22 7 -103 32 -180 55 -77 23 -182
55 -233 71 -51 16 -98 29 -105 29 -7 0 -27 -28 -44 -62 -18 -35 -71 -137 -118
-228 -279 -534 -509 -981 -518 -1003 -8 -20 -10 -19 -187 89 -47 28 -140 84
-208 123 l-123 72 -162 -25 c-89 -14 -263 -41 -387 -61 -124 -20 -281 -45
-350 -55 -478 -75 -1369 -220 -1390 -226 -22 -6 -20 -2 19 42 25 27 97 103
160 169 330 343 816 857 819 865 2 6 -45 67 -105 137 -60 71 -336 394 -614
718 -661 773 -649 759 -644 763 2 2 41 -25 87 -60 45 -36 250 -192 453 -348
405 -311 394 -302 710 -546 121 -93 261 -200 312 -239 50 -38 155 -119 233
-178 l141 -109 54 42 c62 48 54 8 90 415 14 154 28 289 31 302 3 12 344 345
757 740 413 395 801 766 862 825 60 59 113 107 118 108 4 0 7 -6 7 -12z"/>
<path d="M3875 4442 c-95 -89 -425 -405 -730 -697 -499 -479 -651 -624 -723
-691 l-73 -69 -30 -309 c-17 -169 -28 -310 -26 -313 3 -2 83 57 177 131 l173
136 46 -34 c180 -131 306 -215 312 -209 4 5 45 94 92 198 73 162 239 533 282
630 53 118 177 394 315 705 90 201 185 414 212 474 26 60 47 110 46 112 -2 1
-35 -27 -73 -64z"/>
<path d="M3903 4290 c-45 -102 -116 -261 -158 -355 -43 -93 -160 -357 -262
-585 -447 -1002 -447 -1002 -432 -1011 8 -4 70 -48 139 -97 80 -58 129 -87
136 -81 6 5 107 132 225 283 140 179 228 282 254 299 22 14 54 39 72 54 l31
28 12 245 c6 135 19 389 30 565 26 442 43 797 39 820 -3 11 -37 -56 -86 -165z"/>
<path d="M500 3416 c0 -4 107 -131 237 -284 130 -152 329 -385 442 -517 113
-132 257 -300 319 -373 l115 -133 181 2 c100 1 190 6 201 12 27 14 95 69 95
77 0 3 -33 31 -72 61 -80 60 -943 722 -1048 803 -36 27 -121 93 -190 146 -281
216 -280 216 -280 206z"/>
<path d="M3874 2739 l-71 -50 -8 -81 c-3 -44 -3 -84 2 -89 4 -4 62 -24 128
-44 66 -20 238 -72 383 -116 145 -45 266 -79 268 -76 3 3 -52 51 -123 108
-385 311 -497 399 -502 399 -3 -1 -38 -23 -77 -51z"/>
<path d="M3649 2499 c-52 -66 -114 -146 -138 -177 -39 -52 -76 -99 -296 -377
-39 -49 -75 -96 -79 -103 -5 -8 20 -58 63 -131 l71 -119 36 -174 c43 -210 43
-210 56 -178 5 14 93 302 195 640 116 387 187 638 190 678 3 34 4 62 1 62 -2
0 -47 -54 -99 -121z"/>
<path d="M2524 2482 c-54 -43 -179 -142 -276 -219 -176 -140 -187 -153 -125
-153 12 0 165 -66 340 -146 175 -81 320 -144 323 -142 4 5 -151 726 -159 734
-2 2 -49 -31 -103 -74z"/>
<path d="M2730 2504 c0 -9 349 -595 365 -612 9 -10 28 8 95 92 46 58 88 112
92 120 6 10 -62 63 -260 203 -296 210 -292 207 -292 197z"/>
<path d="M3775 2458 c-6 -19 -316 -1049 -323 -1073 -13 -50 6 -15 238 435 95
184 202 391 237 458 36 68 61 127 57 132 -8 7 -183 60 -199 60 -3 0 -8 -6 -10
-12z"/>
<path d="M2703 2430 c3 -19 20 -98 37 -175 17 -77 44 -201 61 -275 16 -74 33
-148 37 -164 7 -26 25 -37 172 -102 91 -40 166 -69 168 -65 1 5 -84 154 -191
332 -314 527 -290 489 -284 449z"/>
<path d="M1456 1912 c-83 -86 -288 -302 -458 -479 -169 -177 -308 -323 -308
-326 0 -4 243 78 365 123 28 10 280 98 560 195 911 315 1030 356 1059 369 27
11 19 16 -259 144 l-287 132 -262 0 -261 0 -149 -158z"/>
<path d="M2620 1728 c-80 -27 -246 -85 -370 -128 -124 -43 -373 -130 -555
-194 -181 -63 -437 -152 -567 -197 -130 -46 -235 -85 -234 -87 2 -2 80 9 173
23 92 15 236 37 318 50 83 13 249 40 370 59 121 19 353 56 515 81 162 26 387
62 500 80 l205 33 108 62 c59 35 107 66 107 70 0 4 -62 35 -137 68 -76 34
-172 76 -213 95 l-75 34 -145 -49z"/>
<path d="M3105 1474 c-60 -36 -124 -68 -142 -71 -18 -3 -33 -8 -33 -12 0 -11
375 -230 378 -220 7 18 -71 369 -82 369 -6 0 -60 -30 -121 -66z"/>
</g>
</svg>
